<svg version="1.1" viewBox="0.0 0.0 960.0 960.0" fill="none" stroke="none" stroke-linecap="square" stroke-miterlimit="10" xmlns:xlink="http://www.w3.org/1999/xlink" xmlns="http://www.w3.org/2000/svg"><clipPath id="p.0"><path d="m0 0l960.0 0l0 960.0l-960.0 0l0 -960.0z" clip-rule="nonzero"/></clipPath><g clip-path="url(#p.0)"><path fill="#000000" fill-opacity="0.0" d="m0 0l960.0 0l0 960.0l-960.0 0z" fill-rule="evenodd"/><path fill="#ff9900" d="m552.48816 479.9882l0 0c0 -40.03412 -32.45404 -72.48819 -72.48816 -72.48819l0 0c-19.225067 0 -37.66272 7.6371155 -51.256897 21.231293c-13.594177 13.594177 -21.231293 32.03183 -21.231293 51.256897l0 0c0 40.03415 32.45407 72.48819 72.48819 72.48819l0 0c40.03412 0 72.48816 -32.45404 72.48816 -72.48819z" fill-rule="evenodd"/><path stroke="#000000" stroke-width="24.0" stroke-linejoin="round" stroke-linecap="butt" d="m552.48816 479.9882l0 0c0 -40.03412 -32.45404 -72.48819 -72.48816 -72.48819l0 0c-19.225067 0 -37.66272 7.6371155 -51.256897 21.231293c-13.594177 13.594177 -21.231293 32.03183 -21.231293 51.256897l0 0c0 40.03415 32.45407 72.48819 72.48819 72.48819l0 0c40.03412 0 72.48816 -32.45404 72.48816 -72.48819z" fill-rule="evenodd"/><path fill="#b6d7a8" d="m240.97638 480.0l0 0c0 -40.03412 -32.45407 -72.48819 -72.48819 -72.48819l0 0c-19.225067 0 -37.66272 7.6371155 -51.25689 21.231293c-13.594177 13.594177 -21.2313 32.03183 -21.2313 51.256897l0 0c0 40.03412 32.45407 72.48816 72.48819 72.48816l0 0c40.03412 0 72.48819 -32.45404 72.48819 -72.48816z" fill-rule="evenodd"/><path stroke="#000000" stroke-width="24.0" stroke-linejoin="round" stroke-linecap="butt" d="m240.97638 480.0l0 0c0 -40.03412 -32.45407 -72.48819 -72.48819 -72.48819l0 0c-19.225067 0 -37.66272 7.6371155 -51.25689 21.231293c-13.594177 13.594177 -21.2313 32.03183 -21.2313 51.256897l0 0c0 40.03412 32.45407 72.48816 72.48819 72.48816l0 0c40.03412 0 72.48819 -32.45404 72.48819 -72.48816z" fill-rule="evenodd"/><path fill="#6d9eeb" d="m714.35693 480.0l0 0c0 -40.03412 32.4541 -72.48819 72.48822 -72.48819l0 0c19.225037 0 37.66272 7.6371155 51.256897 21.231293c13.594177 13.594177 21.231262 32.03183 21.231262 51.256897l0 0c0 40.03412 -32.45404 72.48816 -72.48816 72.48816l0 0c-40.03412 0 -72.48822 -32.45404 -72.48822 -72.48816z" fill-rule="evenodd"/><path stroke="#000000" stroke-width="24.0" stroke-linejoin="round" stroke-linecap="butt" d="m714.35693 480.0l0 0c0 -40.03412 32.4541 -72.48819 72.48822 -72.48819l0 0c19.225037 0 37.66272 7.6371155 51.256897 21.231293c13.594177 13.594177 21.231262 32.03183 21.231262 51.256897l0 0c0 40.03412 -32.45404 72.48816 -72.48816 72.48816l0 0c-40.03412 0 -72.48822 -32.45404 -72.48822 -72.48816z" fill-rule="evenodd"/><path fill="#000000" fill-opacity="0.0" d="m240.97638 480.0l166.55118 0" fill-rule="evenodd"/><path stroke="#000000" stroke-width="24.0" stroke-linejoin="round" stroke-linecap="butt" d="m240.97638 480.0l166.55118 0" fill-rule="evenodd"/><path fill="#000000" fill-opacity="0.0" d="m714.35693 480.0l-161.85828 0" fill-rule="evenodd"/><path stroke="#000000" stroke-width="24.0" stroke-linejoin="round" stroke-linecap="butt" d="m714.35693 480.0l-161.85828 0" fill-rule="evenodd"/><path fill="#6d9eeb" d="m361.66705 275.01407l0 0c34.669556 -20.01706 46.54773 -64.349304 26.53067 -99.01886l0 0c-9.612518 -16.64891 -25.445099 -28.797348 -44.01474 -33.77281c-18.569641 -4.975479 -38.355225 -2.3703918 -55.00412 7.2421417l0 0c-34.669556 20.01706 -46.547745 64.349304 -26.53067 99.01886l0 0c20.01706 34.669556 64.349304 46.54773 99.01886 26.53067z" fill-rule="evenodd"/><path stroke="#000000" stroke-width="24.0" stroke-linejoin="round" stroke-linecap="butt" d="m361.66705 275.01407l0 0c34.669556 -20.01706 46.54773 -64.349304 26.53067 -99.01886l0 0c-9.612518 -16.64891 -25.445099 -28.797348 -44.01474 -33.77281c-18.569641 -4.975479 -38.355225 -2.3703918 -55.00412 7.2421417l0 0c-34.669556 20.01706 -46.547745 64.349304 -26.53067 99.01886l0 0c20.01706 34.669556 64.349304 46.54773 99.01886 26.53067z" fill-rule="evenodd"/><path fill="#b6d7a8" d="m598.35736 684.9617l0 0c34.669556 -20.01709 79.00177 -8.138916 99.01886 26.53064l0 0c9.612488 16.648926 12.21759 36.43451 7.2421265 55.00415c-4.975464 18.569641 -17.123901 34.40222 -33.772827 44.01471l0 0c-34.669556 20.01709 -79.00177 8.138916 -99.01886 -26.53064l0 0c-20.01709 -34.669556 -8.138855 -79.00183 26.5307 -99.01886z" fill-rule="evenodd"/><path stroke="#000000" stroke-width="24.0" stroke-linejoin="round" stroke-linecap="butt" d="m598.35736 684.9617l0 0c34.669556 -20.01709 79.00177 -8.138916 99.01886 26.53064l0 0c9.612488 16.648926 12.21759 36.43451 7.2421265 55.00415c-4.975464 18.569641 -17.123901 34.40222 -33.772827 44.01471l0 0c-34.669556 20.01709 -79.00177 8.138916 -99.01886 -26.53064l0 0c-20.01709 -34.669556 -8.138855 -79.00183 26.5307 -99.01886z" fill-rule="evenodd"/><path fill="#000000" fill-opacity="0.0" d="m361.66705 275.01407l83.27557 144.22049" fill-rule="evenodd"/><path stroke="#000000" stroke-width="24.0" stroke-linejoin="round" stroke-linecap="butt" d="m361.66705 275.01407l83.27557 144.22049" fill-rule="evenodd"/><path fill="#000000" fill-opacity="0.0" d="m598.35736 684.9617l-80.91339 -140.15747" fill-rule="evenodd"/><path stroke="#000000" stroke-width="24.0" stroke-linejoin="round" stroke-linecap="butt" d="m598.35736 684.9617l-80.91339 -140.15747" fill-rule="evenodd"/><path fill="#b6d7a8" d="m598.3551 275.01758l0 0c34.669556 20.01706 79.00183 8.138855 99.01892 -26.530685l0 0c9.612488 -16.648895 12.21759 -36.43448 7.2421265 -55.00412c-4.975464 -18.569626 -17.123901 -34.402206 -33.772827 -44.01474l0 0c-34.669556 -20.01706 -79.00183 -8.13887 -99.01886 26.53067l0 0c-20.01709 34.669556 -8.138855 79.001816 26.53064 99.018875z" fill-rule="evenodd"/><path stroke="#000000" stroke-width="24.0" stroke-linejoin="round" stroke-linecap="butt" d="m598.3551 275.01758l0 0c34.669556 20.01706 79.00183 8.138855 99.01892 -26.530685l0 0c9.612488 -16.648895 12.21759 -36.43448 7.2421265 -55.00412c-4.975464 -18.569626 -17.123901 -34.402206 -33.772827 -44.01474l0 0c-34.669556 -20.01706 -79.00183 -8.13887 -99.01886 26.53067l0 0c-20.01709 34.669556 -8.138855 79.001816 26.53064 99.018875z" fill-rule="evenodd"/><path fill="#6d9eeb" d="m361.66486 684.96515l0 0c34.669525 20.01709 46.54773 64.349304 26.53067 99.01886l0 0c-9.612549 16.648926 -25.44513 28.797363 -44.01477 33.772827c-18.56961 4.975464 -38.355194 2.3703613 -55.00409 -7.2421265l0 0c-34.669556 -20.01709 -46.547745 -64.349304 -26.5307 -99.01886l0 0c20.01706 -34.669556 64.349335 -46.54773 99.01889 -26.5307z" fill-rule="evenodd"/><path stroke="#000000" stroke-width="24.0" stroke-linejoin="round" stroke-linecap="butt" d="m361.66486 684.96515l0 0c34.669525 20.01709 46.54773 64.349304 26.53067 99.01886l0 0c-9.612549 16.648926 -25.44513 28.797363 -44.01477 33.772827c-18.56961 4.975464 -38.355194 2.3703613 -55.00409 -7.2421265l0 0c-34.669556 -20.01709 -46.547745 -64.349304 -26.5307 -99.01886l0 0c20.01706 -34.669556 64.349335 -46.54773 99.01889 -26.5307z" fill-rule="evenodd"/><path fill="#000000" fill-opacity="0.0" d="m598.3551 275.01758l-83.27557 144.22046" fill-rule="evenodd"/><path stroke="#000000" stroke-width="24.0" stroke-linejoin="round" stroke-linecap="butt" d="m598.3551 275.01758l-83.27557 144.22046" fill-rule="evenodd"/><path fill="#000000" fill-opacity="0.0" d="m361.66486 684.96515l80.944855 -140.25195" fill-rule="evenodd"/><path stroke="#000000" stroke-width="24.0" stroke-linejoin="round" stroke-linecap="butt" d="m361.66486 684.96515l80.944855 -140.25195" fill-rule="evenodd"/></g></svg>